<?xml version="1.0" encoding="UTF-8" standalone="no"?>
<svg
   id="canvas"
   viewBox="442.587 345.389 1259.551 245.832"
   version="1.1"
   sodipodi:docname="csubham.svg"
   inkscape:version="1.2.2 (1:1.2.2+202212051552+b0a8486541)"
   xmlns:inkscape="http://www.inkscape.org/namespaces/inkscape"
   xmlns:sodipodi="http://sodipodi.sourceforge.net/DTD/sodipodi-0.dtd"
   xmlns="http://www.w3.org/2000/svg"
   xmlns:svg="http://www.w3.org/2000/svg">
  <defs
     id="defs734" />
  <sodipodi:namedview
     id="namedview732"
     pagecolor="#505050"
     bordercolor="#eeeeee"
     borderopacity="1"
     inkscape:showpageshadow="0"
     inkscape:pageopacity="0"
     inkscape:pagecheckerboard="0"
     inkscape:deskcolor="#505050"
     showgrid="false"
     inkscape:zoom="1.1504099"
     inkscape:cx="629.7755"
     inkscape:cy="122.565"
     inkscape:window-width="1920"
     inkscape:window-height="1011"
     inkscape:window-x="0"
     inkscape:window-y="0"
     inkscape:window-maximized="1"
     inkscape:current-layer="canvas" />
  <path
     d="M 591.46,363.59 C 590.15 361.83, 587.91 359.62, 583.11 357.31 C 578.31 354.99, 575.08 352.77, 567.44 352.01 C 559.81 351.26, 554.68 350.85, 544.94 353.52 C 535.20 356.19, 529.43 358.39, 518.73 365.35 C 508.02 372.31, 501.78 377.73, 491.43 388.32 C 481.07 398.90, 475.12 405.62, 466.95 418.28 C 458.78 430.94, 454.83 438.38, 450.58 451.62 C 446.33 464.86, 445.19 471.98, 445.70 484.46 C 446.20 496.94, 447.81 503.44, 453.09 514.03 C 458.37 524.62, 462.47 529.52, 472.10 537.40 C 481.72 545.29, 488.14 548.54, 501.21 553.44 C 514.27 558.35, 522.28 560.17, 537.41 561.94 C 552.54 563.71, 561.14 563.27, 576.85 562.31 C 592.55 561.35, 601.24 559.85, 615.92 557.12 C 630.60 554.39, 637.95 552.41, 650.25 548.65 C 662.55 544.88, 667.87 542.91, 677.42 538.30 C 686.98 533.69, 691.36 531.03, 698.03 525.60 C 704.70 520.18, 707.35 517.20, 710.77 511.16 C 714.19 505.12, 715.08 501.66, 715.11 495.41 C 715.13 489.16, 714.51 485.77, 710.91 479.90 C 707.30 474.03, 704.16 470.99, 697.09 466.06 C 690.02 461.14, 684.93 458.72, 675.55 455.29 C 666.17 451.85, 660.15 450.57, 650.19 448.89 C 640.23 447.22, 634.33 447.03, 625.77 446.90 C 617.20 446.76, 612.83 447.04, 607.35 448.24 C 601.87 449.45, 599.53 450.52, 598.37 452.93 C 597.21 455.33, 598.11 457.44, 601.57 460.28 C 605.02 463.11, 608.40 464.02, 615.65 467.11 C 622.90 470.21, 628.03 471.90, 637.82 475.76 C 647.60 479.62, 653.52 481.75, 664.56 486.41 C 675.60 491.07, 682.00 493.89, 693.01 499.03 C 704.03 504.18, 709.81 506.86, 719.64 512.15 C 729.47 517.45, 734.43 520.41, 742.17 525.51 C 749.91 530.62, 753.51 533.03, 758.34 537.69 C 763.17 542.35, 764.77 544.76, 766.34 548.80 C 767.91 552.84, 767.72 554.26, 766.19 557.88 C 764.67 561.49, 763.48 563.42, 758.71 566.88 C 753.95 570.34, 750.66 572.17, 742.36 575.16 C 734.07 578.16, 728.59 579.79, 717.23 581.85 C 705.86 583.91, 698.55 584.57, 685.54 585.46 C 672.53 586.35, 664.67 586.57, 652.17 586.30 C 639.66 586.03, 632.74 585.57, 623.02 584.10 C 613.29 582.62, 608.79 581.17, 603.53 578.94 C 598.26 576.71, 597.56 576.15, 596.70 572.96 C 595.85 569.78, 596.61 567.89, 599.26 563.02 C 601.91 558.15, 604.14 554.65, 609.95 548.61 C 615.75 542.56, 619.95 538.95, 628.29 532.81 C 636.64 526.67, 641.77 523.36, 651.66 517.91 C 661.56 512.46, 667.28 509.55, 677.77 505.57 C 688.26 501.59, 694.36 499.91, 704.11 498.01 C 713.86 496.11, 718.34 495.79, 726.51 496.09 C 734.68 496.40, 738.39 497.10, 744.96 499.54 C 751.52 501.98, 754.02 503.75, 759.33 508.30 C 764.63 512.86, 766.75 516.38, 771.49 522.33 C 776.23 528.28, 778.50 532.05, 783.02 538.06 C 787.55 544.06, 789.84 547.29, 794.12 552.34 C 798.39 557.38, 800.42 559.96, 804.40 563.27 C 808.37 566.59, 810.23 568.03, 813.99 568.90 C 817.75 569.78, 819.81 569.45, 823.18 567.64 C 826.55 565.83, 827.87 563.85, 830.84 559.85 C 833.82 555.86, 835.47 552.40, 838.07 547.67 C 840.66 542.93, 841.55 539.29, 843.84 536.18 C 846.13 533.07, 847.24 532.45, 849.52 532.10 C 851.80 531.75, 852.27 532.13, 855.24 534.45 C 858.20 536.77, 860.23 539.69, 864.34 543.71 C 868.44 547.74, 870.74 550.50, 875.76 554.58 C 880.78 558.66, 883.94 561.37, 889.45 564.10 C 894.97 566.82, 898.16 567.70, 903.32 568.20 C 908.49 568.69, 911.12 568.48, 915.29 566.57 C 919.46 564.66, 922.84 560.75, 924.15 558.64 C 925.47 556.53, 923.97 555.15, 921.87 556.02 C 919.77 556.89, 917.28 561.30, 913.64 562.98 C 910.00 564.65, 908.20 564.85, 903.69 564.41 C 899.18 563.97, 896.20 563.35, 891.10 560.79 C 886.01 558.22, 882.99 555.60, 878.23 551.59 C 873.47 547.58, 871.37 544.88, 867.30 540.74 C 863.23 536.61, 861.55 533.55, 857.87 530.92 C 854.19 528.29, 852.47 527.15, 848.90 527.60 C 845.34 528.05, 843.08 529.63, 840.06 533.18 C 837.05 536.72, 836.42 540.56, 833.82 545.34 C 831.21 550.12, 829.62 553.42, 827.03 557.08 C 824.45 560.75, 823.30 562.13, 820.88 563.66 C 818.47 565.19, 817.79 565.39, 814.95 564.73 C 812.12 564.08, 810.41 563.30, 806.72 560.40 C 803.04 557.51, 800.80 555.08, 796.53 550.25 C 792.25 545.43, 789.93 542.21, 785.35 536.28 C 780.78 530.34, 778.53 526.58, 773.67 520.58 C 768.81 514.58, 766.62 510.95, 761.04 506.28 C 755.47 501.61, 752.69 499.72, 745.80 497.24 C 738.91 494.75, 735.00 494.11, 726.58 493.86 C 718.16 493.61, 713.62 494.02, 703.71 496.00 C 693.81 497.97, 687.67 499.71, 677.07 503.73 C 666.46 507.76, 660.72 510.69, 650.69 516.12 C 640.66 521.56, 635.48 524.82, 626.93 530.92 C 618.38 537.03, 614.01 540.51, 607.94 546.65 C 601.86 552.78, 599.36 556.17, 596.56 561.59 C 593.76 567.02, 592.73 569.84, 593.93 573.76 C 595.13 577.69, 596.80 578.74, 602.56 581.21 C 608.31 583.69, 612.80 584.75, 622.72 586.14 C 632.63 587.52, 639.54 587.90, 652.13 588.13 C 664.72 588.37, 672.57 588.15, 685.66 587.30 C 698.75 586.46, 706.08 585.86, 717.59 583.92 C 729.10 581.98, 734.63 580.51, 743.22 577.61 C 751.81 574.72, 755.33 573.13, 760.55 569.44 C 765.77 565.75, 767.60 563.51, 769.33 559.16 C 771.06 554.80, 771.05 552.34, 769.21 547.67 C 767.36 543.01, 765.28 540.61, 760.10 535.83 C 754.92 531.04, 751.24 528.80, 743.33 523.73 C 735.42 518.66, 730.44 515.75, 720.53 510.48 C 710.63 505.20, 704.84 502.54, 693.80 497.36 C 682.76 492.17, 676.36 489.34, 665.35 484.56 C 654.34 479.79, 648.43 477.53, 638.74 473.47 C 629.06 469.41, 623.93 467.48, 616.91 464.26 C 609.90 461.04, 606.92 459.38, 603.67 457.37 C 600.42 455.36, 599.81 455.43, 600.67 454.21 C 601.53 452.99, 602.96 452.23, 607.97 451.28 C 612.99 450.33, 617.38 449.47, 625.75 449.45 C 634.12 449.44, 640.01 449.58, 649.81 451.19 C 659.60 452.81, 665.57 454.13, 674.73 457.53 C 683.89 460.93, 688.84 463.42, 695.60 468.19 C 702.36 472.96, 705.18 475.92, 708.52 481.36 C 711.87 486.80, 712.31 489.69, 712.32 495.41 C 712.32 501.12, 711.69 504.22, 708.57 509.93 C 705.44 515.65, 703.07 518.62, 696.68 523.98 C 690.30 529.33, 686.03 532.07, 676.65 536.71 C 667.27 541.35, 661.99 543.36, 649.79 547.16 C 637.59 550.96, 630.27 552.96, 615.66 555.70 C 601.05 558.45, 592.38 559.95, 576.76 560.90 C 561.14 561.86, 552.58 562.28, 537.58 560.50 C 522.57 558.72, 514.64 556.88, 501.75 552.01 C 488.85 547.15, 482.55 543.91, 473.10 536.17 C 463.66 528.44, 459.68 523.68, 454.51 513.32 C 449.33 502.96, 447.73 496.64, 447.23 484.40 C 446.73 472.15, 447.80 465.13, 452.00 452.07 C 456.20 439.01, 460.10 431.62, 468.21 419.09 C 476.33 406.57, 482.27 399.88, 492.57 389.44 C 502.87 379.00, 509.13 373.64, 519.72 366.90 C 530.31 360.16, 536.05 358.14, 545.53 355.75 C 555.00 353.37, 559.89 354.03, 567.10 354.98 C 574.31 355.93, 577.05 358.27, 581.56 360.50 C 586.06 362.72, 587.66 365.48, 589.64 366.10 C 591.62 366.72, 592.76 365.35, 591.46 363.59"
     style="stroke:black;fill:black;stroke-width:7.55905512;stroke-dasharray:none"
     id="path727" />
  <path
     d="M 902.66,382.32 C 902.45 383.25, 902.01 382.88, 903.31 385.88 C 904.61 388.89, 906.22 390.79, 909.14 397.34 C 912.06 403.88, 913.95 408.58, 917.92 418.59 C 921.89 428.61, 924.45 435.71, 929.00 447.40 C 933.54 459.08, 936.18 465.94, 940.63 477.02 C 945.08 488.10, 947.43 493.62, 951.23 502.77 C 955.04 511.92, 956.51 516.06, 959.65 522.78 C 962.80 529.49, 963.95 532.12, 966.96 536.34 C 969.97 540.56, 971.33 542.17, 974.72 543.87 C 978.11 545.57, 980.12 545.72, 983.92 544.83 C 987.71 543.94, 989.55 542.18, 993.69 539.41 C 997.83 536.63, 999.86 534.20, 1004.60 530.96 C 1009.34 527.72, 1011.82 525.75, 1017.37 523.22 C 1022.92 520.69, 1026.12 519.48, 1032.33 518.32 C 1038.54 517.15, 1041.86 516.85, 1048.41 517.39 C 1054.96 517.93, 1058.53 518.87, 1065.06 521.01 C 1071.60 523.15, 1075.64 524.96, 1081.08 528.08 C 1086.51 531.20, 1089.04 533.18, 1092.23 536.62 C 1095.43 540.05, 1096.48 541.98, 1097.03 545.24 C 1097.58 548.51, 1097.35 549.75, 1095.00 552.93 C 1092.64 556.12, 1090.43 557.98, 1085.25 561.17 C 1080.06 564.35, 1076.53 566.23, 1069.07 568.88 C 1061.60 571.53, 1056.76 572.79, 1047.92 574.42 C 1039.09 576.05, 1034.07 576.78, 1024.88 577.01 C 1015.69 577.24, 1010.68 576.86, 1001.96 575.58 C 993.24 574.31, 988.40 573.17, 981.30 570.63 C 974.19 568.10, 970.95 566.53, 966.44 562.91 C 961.94 559.29, 960.35 556.84, 958.77 552.53 C 957.19 548.21, 956.87 545.76, 958.54 541.34 C 960.20 536.91, 962.10 534.64, 967.09 530.40 C 972.08 526.16, 975.96 523.87, 983.49 520.14 C 991.01 516.41, 995.78 514.89, 1004.70 511.76 C 1013.63 508.62, 1018.82 507.27, 1028.12 504.46 C 1037.43 501.64, 1042.08 500.51, 1051.22 497.69 C 1060.36 494.87, 1065.37 493.88, 1073.80 490.35 C 1082.23 486.82, 1086.34 484.73, 1093.37 480.04 C 1100.39 475.36, 1103.89 472.97, 1108.93 466.92 C 1113.97 460.87, 1115.98 457.17, 1118.58 449.82 C 1121.17 442.47, 1121.70 438.25, 1121.90 430.16 C 1122.11 422.07, 1121.43 417.59, 1119.62 409.35 C 1117.81 401.12, 1115.98 396.71, 1112.86 388.97 C 1109.74 381.24, 1107.62 377.12, 1104.03 370.67 C 1100.43 364.22, 1098.37 361.09, 1094.89 356.73 C 1091.41 352.38, 1089.59 350.00, 1086.63 348.89 C 1083.68 347.78, 1081.29 348.50, 1080.12 351.20 C 1078.94 353.89, 1079.51 356.28, 1080.76 362.36 C 1082.01 368.44, 1083.25 372.36, 1086.37 381.59 C 1089.48 390.82, 1091.77 396.98, 1096.34 408.50 C 1100.91 420.02, 1103.70 426.92, 1109.22 439.20 C 1114.75 451.49, 1117.75 458.16, 1123.96 469.92 C 1130.17 481.68, 1133.66 487.92, 1140.27 498.02 C 1146.87 508.12, 1150.73 512.98, 1156.99 520.41 C 1163.26 527.85, 1165.99 530.80, 1171.59 535.20 C 1177.19 539.59, 1179.80 540.95, 1184.99 542.38 C 1190.19 543.81, 1192.85 543.50, 1197.56 542.35 C 1202.28 541.19, 1204.60 539.20, 1208.56 536.61 C 1212.52 534.02, 1214.16 531.72, 1217.36 529.40 C 1220.55 527.07, 1221.69 525.75, 1224.55 524.99 C 1227.41 524.23, 1228.25 524.19, 1231.66 525.61 C 1235.08 527.03, 1237.11 528.70, 1241.63 532.11 C 1246.15 535.51, 1248.76 538.36, 1254.27 542.62 C 1259.78 546.89, 1262.84 549.73, 1269.17 553.43 C 1275.51 557.13, 1279.27 558.97, 1285.94 561.12 C 1292.62 563.26, 1296.39 563.86, 1302.55 564.14 C 1308.71 564.43, 1311.65 564.09, 1316.75 562.53 C 1321.85 560.97, 1324.22 559.80, 1328.05 556.36 C 1331.88 552.92, 1333.54 550.45, 1335.90 545.35 C 1338.26 540.24, 1338.96 536.65, 1339.84 530.82 C 1340.72 524.99, 1340.86 521.57, 1340.31 516.18 C 1339.75 510.80, 1339.36 507.92, 1337.06 503.90 C 1334.76 499.89, 1332.97 497.82, 1328.80 496.11 C 1324.63 494.40, 1321.54 494.41, 1316.24 495.37 C 1310.93 496.33, 1307.66 497.85, 1302.28 500.90 C 1296.89 503.96, 1293.76 506.19, 1289.31 510.62 C 1284.86 515.06, 1282.70 518.03, 1280.02 523.08 C 1277.34 528.13, 1276.49 531.00, 1275.89 535.87 C 1275.30 540.74, 1275.65 543.28, 1277.05 547.42 C 1278.46 551.57, 1280.05 553.71, 1282.92 556.61 C 1285.79 559.51, 1287.78 560.73, 1291.40 561.91 C 1295.03 563.09, 1297.30 563.38, 1301.07 562.51 C 1304.83 561.63, 1306.97 560.44, 1310.22 557.52 C 1313.47 554.61, 1314.92 552.04, 1317.30 547.93 C 1319.69 543.81, 1320.74 541.05, 1322.17 536.94 C 1323.59 532.83, 1324.23 530.26, 1324.42 527.37 C 1324.61 524.49, 1323.52 523.05, 1323.12 522.52 C 1322.71 521.98, 1321.80 523.01, 1322.39 524.68 C 1322.98 526.35, 1323.31 528.12, 1326.06 530.85 C 1328.82 533.59, 1331.36 535.31, 1336.16 538.34 C 1340.95 541.36, 1344.21 543.35, 1350.02 545.97 C 1355.84 548.60, 1359.26 549.79, 1365.23 551.45 C 1371.21 553.12, 1374.18 553.60, 1379.89 554.30 C 1385.60 554.99, 1388.63 555.39, 1393.77 554.93 C 1398.91 554.48, 1401.49 553.84, 1405.57 552.02 C 1409.65 550.20, 1411.31 548.14, 1414.17 545.83 C 1417.03 543.51, 1418.11 541.94, 1419.85 540.45 C 1421.59 538.97, 1421.64 538.19, 1422.87 538.39 C 1424.10 538.60, 1423.96 539.44, 1426.00 541.47 C 1428.05 543.49, 1429.56 545.32, 1433.10 548.52 C 1436.64 551.72, 1439.37 554.16, 1443.70 557.48 C 1448.03 560.80, 1450.19 562.73, 1454.75 565.14 C 1459.30 567.54, 1461.71 568.30, 1466.49 569.50 C 1471.26 570.70, 1474.00 571.27, 1478.63 571.13 C 1483.25 570.99, 1485.24 570.58, 1489.62 568.80 C 1494.00 567.03, 1496.44 565.40, 1500.52 562.26 C 1504.61 559.12, 1506.25 556.85, 1510.05 553.09 C 1513.85 549.33, 1516.05 546.61, 1519.53 543.46 C 1523.01 540.31, 1524.50 538.86, 1527.46 537.33 C 1530.41 535.79, 1531.58 535.53, 1534.30 535.78 C 1537.02 536.04, 1538.05 536.81, 1541.06 538.60 C 1544.07 540.39, 1545.83 542.04, 1549.35 544.72 C 1552.88 547.40, 1554.85 549.17, 1558.68 552.00 C 1562.51 554.82, 1564.54 556.45, 1568.49 558.83 C 1572.45 561.20, 1574.52 562.35, 1578.46 563.89 C 1582.41 565.43, 1584.43 566.15, 1588.21 566.55 C 1592.00 566.94, 1593.85 566.83, 1597.40 565.87 C 1600.94 564.91, 1602.54 563.75, 1605.93 561.76 C 1609.33 559.77, 1611.15 558.27, 1614.38 555.92 C 1617.62 553.57, 1619.16 551.99, 1622.09 550.02 C 1625.02 548.06, 1626.31 547.14, 1629.02 546.09 C 1631.73 545.03, 1632.67 544.62, 1635.65 544.75 C 1638.63 544.88, 1640.17 545.02, 1643.92 546.73 C 1647.68 548.43, 1649.96 550.22, 1654.43 553.28 C 1658.91 556.34, 1661.32 558.44, 1666.30 562.04 C 1671.28 565.64, 1674.57 567.88, 1679.33 571.29 C 1684.09 574.70, 1686.51 576.76, 1690.11 579.07 C 1693.71 581.38, 1695.64 582.48, 1697.35 582.83 C 1699.06 583.18, 1699.65 582.23, 1698.65 580.82 C 1697.66 579.42, 1695.78 578.36, 1692.38 575.81 C 1688.98 573.25, 1686.40 571.42, 1681.65 568.04 C 1676.89 564.66, 1673.56 562.53, 1668.60 558.88 C 1663.65 555.24, 1661.41 553.11, 1656.89 549.81 C 1652.37 546.50, 1650.18 544.44, 1646.00 542.36 C 1641.82 540.29, 1639.78 539.75, 1636.00 539.44 C 1632.22 539.12, 1630.52 539.61, 1627.10 540.78 C 1623.69 541.94, 1622.13 543.13, 1618.92 545.24 C 1615.70 547.35, 1614.19 548.98, 1611.02 551.32 C 1607.85 553.67, 1606.08 555.10, 1603.06 556.95 C 1600.03 558.81, 1598.76 559.73, 1595.90 560.59 C 1593.03 561.45, 1591.85 561.54, 1588.72 561.27 C 1585.59 561.00, 1583.79 560.53, 1580.24 559.22 C 1576.68 557.92, 1574.67 556.96, 1570.94 554.74 C 1567.21 552.51, 1565.28 550.92, 1561.59 548.11 C 1557.89 545.30, 1556.04 543.50, 1552.46 540.69 C 1548.87 537.89, 1547.20 536.08, 1543.64 534.10 C 1540.08 532.11, 1538.33 530.99, 1534.66 530.79 C 1530.98 530.58, 1528.89 531.20, 1525.25 533.07 C 1521.62 534.94, 1520.15 536.76, 1516.50 540.15 C 1512.85 543.54, 1510.70 546.28, 1506.99 550.03 C 1503.27 553.77, 1501.72 555.94, 1497.92 558.89 C 1494.12 561.83, 1491.86 563.18, 1487.98 564.75 C 1484.09 566.33, 1482.59 566.64, 1478.49 566.76 C 1474.40 566.89, 1471.86 566.45, 1467.52 565.37 C 1463.18 564.29, 1460.95 563.69, 1456.78 561.37 C 1452.61 559.05, 1450.66 557.13, 1446.67 553.78 C 1442.68 550.43, 1440.16 547.98, 1436.82 544.62 C 1433.49 541.26, 1432.67 539.16, 1429.99 536.98 C 1427.32 534.81, 1426.17 534.03, 1423.44 533.75 C 1420.71 533.46, 1418.89 533.95, 1416.33 535.57 C 1413.77 537.18, 1413.16 539.35, 1410.62 541.83 C 1408.08 544.31, 1407.06 546.15, 1403.61 547.98 C 1400.16 549.81, 1398.03 550.45, 1393.37 550.99 C 1388.71 551.53, 1385.74 551.27, 1380.31 550.67 C 1374.88 550.06, 1371.94 549.63, 1366.22 547.97 C 1360.51 546.31, 1357.19 545.11, 1351.74 542.37 C 1346.28 539.63, 1343.20 537.46, 1338.93 534.28 C 1334.66 531.10, 1332.99 529.00, 1330.40 526.46 C 1327.80 523.92, 1327.78 522.66, 1325.94 521.56 C 1324.10 520.46, 1322.79 520.04, 1321.20 520.97 C 1319.61 521.89, 1318.87 523.32, 1317.99 526.18 C 1317.11 529.04, 1317.86 531.44, 1316.81 535.27 C 1315.76 539.10, 1314.77 541.67, 1312.74 545.33 C 1310.70 548.99, 1309.22 551.21, 1306.64 553.57 C 1304.06 555.93, 1302.54 556.52, 1299.83 557.13 C 1297.13 557.74, 1295.78 557.45, 1293.11 556.61 C 1290.45 555.76, 1288.87 555.04, 1286.51 552.89 C 1284.15 550.75, 1282.64 549.18, 1281.33 545.86 C 1280.01 542.55, 1279.52 540.52, 1279.92 536.32 C 1280.33 532.11, 1280.97 529.46, 1283.37 524.85 C 1285.78 520.24, 1287.79 517.39, 1291.95 513.28 C 1296.11 509.17, 1299.18 507.08, 1304.19 504.30 C 1309.19 501.53, 1312.37 500.25, 1316.97 499.39 C 1321.58 498.53, 1323.94 498.69, 1327.23 500.00 C 1330.51 501.31, 1331.61 502.62, 1333.41 505.95 C 1335.22 509.27, 1335.73 511.74, 1336.23 516.60 C 1336.74 521.46, 1336.69 524.82, 1335.92 530.25 C 1335.15 535.68, 1334.47 539.08, 1332.39 543.76 C 1330.32 548.43, 1328.89 550.52, 1325.55 553.60 C 1322.21 556.68, 1320.27 557.70, 1315.70 559.15 C 1311.13 560.60, 1308.44 561.05, 1302.68 560.85 C 1296.92 560.65, 1293.27 560.17, 1286.89 558.14 C 1280.51 556.11, 1276.88 554.36, 1270.79 550.70 C 1264.70 547.05, 1261.79 544.22, 1256.45 539.87 C 1251.10 535.53, 1248.68 532.63, 1244.06 528.96 C 1239.45 525.29, 1237.50 523.25, 1233.38 521.51 C 1229.26 519.78, 1227.24 519.49, 1223.45 520.28 C 1219.67 521.06, 1217.95 522.89, 1214.47 525.43 C 1210.99 527.98, 1209.62 530.34, 1206.05 533.01 C 1202.47 535.68, 1200.63 537.49, 1196.57 538.78 C 1192.51 540.08, 1190.44 540.58, 1185.73 539.48 C 1181.03 538.38, 1178.51 537.35, 1173.06 533.28 C 1167.62 529.20, 1164.78 526.36, 1158.51 519.11 C 1152.25 511.87, 1148.35 507.05, 1141.73 497.06 C 1135.11 487.06, 1131.61 480.86, 1125.43 469.15 C 1119.25 457.43, 1116.26 450.77, 1110.82 438.49 C 1105.38 426.21, 1102.63 419.30, 1098.25 407.76 C 1093.87 396.21, 1091.74 389.98, 1088.93 380.77 C 1086.12 371.55, 1085.29 367.40, 1084.21 361.68 C 1083.14 355.96, 1083.44 354.02, 1083.55 352.17 C 1083.66 350.31, 1083.06 351.04, 1084.77 352.40 C 1086.49 353.77, 1088.79 355.06, 1092.13 359.01 C 1095.48 362.95, 1097.85 365.93, 1101.50 372.12 C 1105.16 378.31, 1107.29 382.41, 1110.41 389.97 C 1113.53 397.53, 1115.33 401.88, 1117.11 409.91 C 1118.90 417.93, 1119.52 422.28, 1119.33 430.09 C 1119.14 437.91, 1118.63 441.92, 1116.17 448.97 C 1113.70 456.02, 1111.84 459.51, 1107.02 465.33 C 1102.20 471.15, 1098.86 473.48, 1092.05 478.07 C 1085.23 482.65, 1081.22 484.76, 1072.93 488.26 C 1064.63 491.76, 1059.66 492.77, 1050.57 495.58 C 1041.48 498.38, 1036.81 499.53, 1027.48 502.30 C 1018.14 505.08, 1012.95 506.38, 1003.91 509.45 C 994.87 512.52, 990.05 513.95, 982.28 517.67 C 974.52 521.38, 970.46 523.53, 965.09 528.03 C 959.71 532.53, 957.29 535.06, 955.41 540.18 C 953.54 545.30, 953.87 548.64, 955.71 553.65 C 957.55 558.66, 959.67 561.32, 964.61 565.21 C 969.55 569.10, 973.03 570.55, 980.43 573.10 C 987.83 575.65, 992.72 576.71, 1001.62 577.97 C 1010.52 579.23, 1015.58 579.60, 1024.93 579.40 C 1034.29 579.20, 1039.35 578.50, 1048.37 576.96 C 1057.40 575.42, 1062.30 574.26, 1070.04 571.70 C 1077.77 569.14, 1081.42 567.45, 1087.04 564.16 C 1092.66 560.86, 1095.37 559.11, 1098.14 555.21 C 1100.91 551.30, 1101.53 548.85, 1100.88 544.63 C 1100.24 540.41, 1098.56 538.00, 1094.93 534.10 C 1091.30 530.21, 1088.51 528.38, 1082.72 525.17 C 1076.94 521.95, 1072.84 520.20, 1066.03 518.02 C 1059.22 515.85, 1055.53 514.87, 1048.67 514.29 C 1041.81 513.70, 1038.30 513.97, 1031.75 515.10 C 1025.20 516.23, 1021.81 517.44, 1015.93 519.93 C 1010.05 522.42, 1007.30 524.41, 1002.35 527.55 C 997.41 530.69, 995.11 533.06, 991.18 535.64 C 987.26 538.22, 985.68 539.53, 982.73 540.45 C 979.79 541.38, 979.10 541.47, 976.45 540.27 C 973.80 539.07, 972.40 538.17, 969.48 534.46 C 966.56 530.75, 965.12 528.21, 961.84 521.71 C 958.57 515.22, 956.99 511.06, 953.11 501.98 C 949.22 492.90, 946.85 487.37, 942.41 476.31 C 937.97 465.24, 935.33 458.39, 930.91 446.66 C 926.48 434.94, 923.99 427.82, 920.29 417.69 C 916.58 407.56, 914.90 402.79, 912.37 396.01 C 909.84 389.23, 909.22 386.74, 907.61 383.79 C 906.01 380.83, 905.32 381.54, 904.33 381.25 C 903.34 380.95, 902.86 381.40, 902.66 382.32"
     style="stroke:black;fill:black;stroke-width:7.55905512;stroke-dasharray:none"
     id="path729" />
</svg>
